%TF.GenerationSoftware,KiCad,Pcbnew,10.0.1*%
%TF.CreationDate,2026-05-16T15:10:10+02:00*%
%TF.ProjectId,blinky,626c696e-6b79-42e6-9b69-6361645f7063,rev?*%
%TF.SameCoordinates,Original*%
%TF.FileFunction,Copper,L1,Top*%
%TF.FilePolarity,Positive*%
%FSLAX46Y46*%
G04 Gerber Fmt 4.6, Leading zero omitted, Abs format (unit mm)*
G04 Created by KiCad (PCBNEW 10.0.1) date 2026-05-16 15:10:10*
%MOMM*%
%LPD*%
G01*
G04 APERTURE LIST*
G04 Aperture macros list*
%AMRoundRect*
0 Rectangle with rounded corners*
0 $1 Rounding radius*
0 $2 $3 $4 $5 $6 $7 $8 $9 X,Y pos of 4 corners*
0 Add a 4 corners polygon primitive as box body*
4,1,4,$2,$3,$4,$5,$6,$7,$8,$9,$2,$3,0*
0 Add four circle primitives for the rounded corners*
1,1,$1+$1,$2,$3*
1,1,$1+$1,$4,$5*
1,1,$1+$1,$6,$7*
1,1,$1+$1,$8,$9*
0 Add four rect primitives between the rounded corners*
20,1,$1+$1,$2,$3,$4,$5,0*
20,1,$1+$1,$4,$5,$6,$7,0*
20,1,$1+$1,$6,$7,$8,$9,0*
20,1,$1+$1,$8,$9,$2,$3,0*%
G04 Aperture macros list end*
%TA.AperFunction,ComponentPad*%
%ADD10C,1.600000*%
%TD*%
%TA.AperFunction,ComponentPad*%
%ADD11R,1.800000X1.800000*%
%TD*%
%TA.AperFunction,ComponentPad*%
%ADD12C,1.800000*%
%TD*%
%TA.AperFunction,ComponentPad*%
%ADD13RoundRect,0.250000X-0.550000X0.550000X-0.550000X-0.550000X0.550000X-0.550000X0.550000X0.550000X0*%
%TD*%
%TA.AperFunction,ComponentPad*%
%ADD14R,1.700000X1.700000*%
%TD*%
%TA.AperFunction,ComponentPad*%
%ADD15C,1.700000*%
%TD*%
%TA.AperFunction,ComponentPad*%
%ADD16RoundRect,0.250000X-0.550000X-0.550000X0.550000X-0.550000X0.550000X0.550000X-0.550000X0.550000X0*%
%TD*%
%TA.AperFunction,ComponentPad*%
%ADD17R,1.295400X1.295400*%
%TD*%
%TA.AperFunction,ComponentPad*%
%ADD18C,1.295400*%
%TD*%
%TA.AperFunction,ViaPad*%
%ADD19C,0.600000*%
%TD*%
%TA.AperFunction,Conductor*%
%ADD20C,0.200000*%
%TD*%
G04 APERTURE END LIST*
D10*
%TO.P,R1,1*%
%TO.N,Net-(D1-K)*%
X153850000Y-97750000D03*
%TO.P,R1,2*%
%TO.N,GND*%
X153850000Y-105370000D03*
%TD*%
D11*
%TO.P,D9,1,K_1*%
%TO.N,Net-(D1-K)*%
X159130000Y-131500000D03*
D12*
%TO.P,D9,2,A_2*%
%TO.N,Net-(D9-A)*%
X161670000Y-131500000D03*
%TD*%
D11*
%TO.P,D8,1,K_1*%
%TO.N,Net-(D1-K)*%
X167380000Y-120800000D03*
D12*
%TO.P,D8,2,A_2*%
%TO.N,Net-(D8-A)*%
X169920000Y-120800000D03*
%TD*%
D13*
%TO.P,U1,1,GND_1*%
%TO.N,GND*%
X154210000Y-120145000D03*
D10*
%TO.P,U1,2,TRIG_2*%
%TO.N,TRIGGER*%
X151670000Y-120145000D03*
%TO.P,U1,3,OUT_3*%
%TO.N,OUT*%
X149130000Y-120145000D03*
%TO.P,U1,4,~{RST}_4*%
%TO.N,+5V*%
X146590000Y-120145000D03*
%TO.P,U1,5,CONT_5*%
%TO.N,Net-(U1-CONT)*%
X146590000Y-127765000D03*
%TO.P,U1,6,THRES_6*%
%TO.N,TRIGGER*%
X149130000Y-127765000D03*
%TO.P,U1,7,DISCH_7*%
%TO.N,Net-(U1-DISCH)*%
X151670000Y-127765000D03*
%TO.P,U1,8,VCC_8*%
%TO.N,+5V*%
X154210000Y-127765000D03*
%TD*%
D11*
%TO.P,D5,1,K_1*%
%TO.N,Net-(D1-K)*%
X132730000Y-128600000D03*
D12*
%TO.P,D5,2,A_2*%
%TO.N,Net-(D5-A)*%
X135270000Y-128600000D03*
%TD*%
D14*
%TO.P,J1,1,Pin_1_1*%
%TO.N,+5V*%
X138385000Y-117895000D03*
D15*
%TO.P,J1,2,Pin_2_2*%
%TO.N,GND*%
X138385000Y-120435000D03*
%TD*%
D10*
%TO.P,R2,1*%
%TO.N,Net-(U1-DISCH)*%
X149800000Y-97750000D03*
%TO.P,R2,2*%
%TO.N,TRIGGER*%
X149800000Y-105370000D03*
%TD*%
%TO.P,R3,1*%
%TO.N,+5V*%
X145750000Y-97750000D03*
%TO.P,R3,2*%
%TO.N,Net-(U1-DISCH)*%
X145750000Y-105370000D03*
%TD*%
D11*
%TO.P,D10,1,K_1*%
%TO.N,Net-(D1-K)*%
X145310000Y-134350000D03*
D12*
%TO.P,D10,2,A_2*%
%TO.N,Net-(D10-A)*%
X147850000Y-134350000D03*
%TD*%
D14*
%TO.P,C2,1*%
%TO.N,GND*%
X133795000Y-117895000D03*
D15*
%TO.P,C2,2*%
%TO.N,Net-(U1-CONT)*%
X133795000Y-120435000D03*
%TD*%
D11*
%TO.P,D4,1,K_1*%
%TO.N,Net-(D1-K)*%
X126830000Y-117950000D03*
D12*
%TO.P,D4,2,A_2*%
%TO.N,Net-(D4-A)*%
X129370000Y-117950000D03*
%TD*%
D11*
%TO.P,D7,1,K_1*%
%TO.N,Net-(D1-K)*%
X147980000Y-92700000D03*
D12*
%TO.P,D7,2,A_2*%
%TO.N,Net-(D7-A)*%
X150520000Y-92700000D03*
%TD*%
D16*
%TO.P,C1,1*%
%TO.N,TRIGGER*%
X134194888Y-110650000D03*
D10*
%TO.P,C1,2*%
%TO.N,GND*%
X136194888Y-110650000D03*
%TD*%
D11*
%TO.P,D3,1,K_1*%
%TO.N,Net-(D1-K)*%
X129710000Y-104500000D03*
D12*
%TO.P,D3,2,A_2*%
%TO.N,Net-(D3-A)*%
X132250000Y-104500000D03*
%TD*%
D11*
%TO.P,D6,1,K_1*%
%TO.N,Net-(D1-K)*%
X168380000Y-107700000D03*
D12*
%TO.P,D6,2,A_2*%
%TO.N,Net-(D6-A)*%
X170920000Y-107700000D03*
%TD*%
D11*
%TO.P,D2,1,K_1*%
%TO.N,Net-(D1-K)*%
X160480000Y-97700000D03*
D12*
%TO.P,D2,2,A_2*%
%TO.N,Net-(D2-A)*%
X163020000Y-97700000D03*
%TD*%
D11*
%TO.P,D1,1,K_1*%
%TO.N,Net-(D1-K)*%
X136680000Y-96300000D03*
D12*
%TO.P,D1,2,A_2*%
%TO.N,Net-(D1-A)*%
X139220000Y-96300000D03*
%TD*%
D17*
%TO.P,U2,1,Q5_1*%
%TO.N,Net-(D6-A)*%
X159990000Y-108800000D03*
D18*
%TO.P,U2,2,Q1_2*%
%TO.N,Net-(D2-A)*%
X157450000Y-108800000D03*
%TO.P,U2,3,Q0_3*%
%TO.N,Net-(D1-A)*%
X154910000Y-108800000D03*
%TO.P,U2,4,Q2_4*%
%TO.N,Net-(D3-A)*%
X152370000Y-108800000D03*
%TO.P,U2,5,Q6_5*%
%TO.N,Net-(D7-A)*%
X149830000Y-108800000D03*
%TO.P,U2,6,Q7_6*%
%TO.N,Net-(D9-A)*%
X147290000Y-108800000D03*
%TO.P,U2,7,Q3_7*%
%TO.N,Net-(D4-A)*%
X144750000Y-108800000D03*
%TO.P,U2,8,VSS_8*%
%TO.N,GND*%
X142210000Y-108800000D03*
%TO.P,U2,9,Q8_9*%
%TO.N,Net-(D8-A)*%
X142210000Y-116420000D03*
%TO.P,U2,10,Q4_10*%
%TO.N,Net-(D5-A)*%
X144750000Y-116420000D03*
%TO.P,U2,11,Q9_11*%
%TO.N,Net-(D10-A)*%
X147290000Y-116420000D03*
%TO.P,U2,12,Cout_12*%
%TO.N,unconnected-(U2-Cout-Pad12)*%
X149830000Y-116420000D03*
%TO.P,U2,13,CKEN_13*%
%TO.N,GND*%
X152370000Y-116420000D03*
%TO.P,U2,14,CLK_14*%
%TO.N,OUT*%
X154910000Y-116420000D03*
%TO.P,U2,15,Reset_15*%
%TO.N,GND*%
X157450000Y-116420000D03*
%TO.P,U2,16,VDD_16*%
%TO.N,VCC*%
X159990000Y-116420000D03*
%TD*%
D19*
%TO.N,Net-(D8-A)*%
X166350000Y-117050000D03*
%TO.N,TRIGGER*%
X149150000Y-107200000D03*
X149450000Y-126950000D03*
%TO.N,+5V*%
X142100000Y-118150000D03*
X143500000Y-111750000D03*
X149730000Y-123350000D03*
X151350000Y-123400000D03*
X148450000Y-121850000D03*
%TO.N,Net-(U1-DISCH)*%
X146100000Y-110000000D03*
%TO.N,Net-(D7-A)*%
X151850000Y-99700000D03*
%TO.N,Net-(D3-A)*%
X150890735Y-106890735D03*
%TD*%
%TO.N,Net-(D1-K)*%
D20*
X130370000Y-104700000D02*
X130800000Y-104270000D01*
%TO.N,GND*%
X153850000Y-105370000D02*
X153850000Y-112820000D01*
X153850000Y-112820000D02*
X157450000Y-116420000D01*
X156502300Y-117367700D02*
X153317700Y-117367700D01*
X151420000Y-107800000D02*
X153850000Y-105370000D01*
X143210000Y-107800000D02*
X151420000Y-107800000D01*
X142210000Y-108800000D02*
X143210000Y-107800000D01*
X157450000Y-116420000D02*
X156502300Y-117367700D01*
X153317700Y-117367700D02*
X152370000Y-116420000D01*
X152370000Y-118305000D02*
X154210000Y-120145000D01*
X140360000Y-110650000D02*
X142210000Y-108800000D01*
X152370000Y-116420000D02*
X152370000Y-118305000D01*
X136194888Y-110650000D02*
X140360000Y-110650000D01*
%TO.N,Net-(D9-A)*%
X154220000Y-124050000D02*
X161670000Y-131500000D01*
X153110000Y-123000000D02*
X154160000Y-124050000D01*
X151214365Y-117715051D02*
X151214365Y-112724365D01*
X154160000Y-124050000D02*
X154220000Y-124050000D01*
X153110000Y-119610686D02*
X151214365Y-117715051D01*
X151214365Y-112724365D02*
X147290000Y-108800000D01*
X153110000Y-123000000D02*
X153110000Y-119610686D01*
%TO.N,Net-(D8-A)*%
X166350000Y-117230000D02*
X169920000Y-120800000D01*
X166350000Y-117050000D02*
X166350000Y-117230000D01*
%TO.N,TRIGGER*%
X137444888Y-107400000D02*
X147770000Y-107400000D01*
X147770000Y-107400000D02*
X149800000Y-105370000D01*
X148950000Y-107400000D02*
X149150000Y-107200000D01*
X134194888Y-110650000D02*
X137444888Y-107400000D01*
X147770000Y-107400000D02*
X148950000Y-107400000D01*
%TO.N,+5V*%
X142100000Y-118150000D02*
X141845000Y-117895000D01*
X149730000Y-123130000D02*
X148450000Y-121850000D01*
X141845000Y-117895000D02*
X138385000Y-117895000D01*
X145790001Y-114040001D02*
X143500000Y-111750000D01*
X154210000Y-126260000D02*
X151350000Y-123400000D01*
X149730000Y-123350000D02*
X149730000Y-123130000D01*
X154210000Y-127765000D02*
X154210000Y-126260000D01*
X146590000Y-120145000D02*
X145790001Y-119345001D01*
X145790001Y-119345001D02*
X145790001Y-114040001D01*
%TO.N,Net-(U1-DISCH)*%
X150777700Y-114677700D02*
X146100000Y-110000000D01*
X150777700Y-116962299D02*
X150777700Y-114677700D01*
X150570000Y-126665000D02*
X150570000Y-117169999D01*
X151670000Y-127765000D02*
X150570000Y-126665000D01*
X150570000Y-117169999D02*
X150777700Y-116962299D01*
%TO.N,Net-(D5-A)*%
X135270000Y-128600000D02*
X135270000Y-125900000D01*
X135270000Y-125900000D02*
X144750000Y-116420000D01*
%TO.N,Net-(D10-A)*%
X147850000Y-116980000D02*
X147290000Y-116420000D01*
X147850000Y-134350000D02*
X147850000Y-116980000D01*
%TO.N,Net-(D4-A)*%
X129370000Y-117950000D02*
X135600000Y-117950000D01*
X135600000Y-117950000D02*
X144750000Y-108800000D01*
%TO.N,Net-(D7-A)*%
X151850000Y-94030000D02*
X150520000Y-92700000D01*
X151970000Y-99580000D02*
X151850000Y-99700000D01*
X151850000Y-99700000D02*
X151850000Y-94030000D01*
%TO.N,Net-(D3-A)*%
X149585635Y-103600000D02*
X150267817Y-104282183D01*
X150900000Y-104914365D02*
X150900000Y-106881470D01*
X132250000Y-104500000D02*
X133150000Y-103600000D01*
X133150000Y-103600000D02*
X149585635Y-103600000D01*
X150255635Y-104270000D02*
X150267817Y-104282183D01*
X150267817Y-104282183D02*
X150900000Y-104914365D01*
X150900000Y-106881470D02*
X150890735Y-106890735D01*
%TO.N,Net-(D6-A)*%
X169720000Y-108900000D02*
X160090000Y-108900000D01*
X160090000Y-108900000D02*
X159990000Y-108800000D01*
X170920000Y-107700000D02*
X169720000Y-108900000D01*
%TO.N,Net-(D2-A)*%
X163020000Y-103230000D02*
X163020000Y-97700000D01*
X157450000Y-108800000D02*
X163020000Y-103230000D01*
%TO.N,Net-(D1-A)*%
X154950000Y-104914365D02*
X154950000Y-108760000D01*
X154950000Y-108760000D02*
X154910000Y-108800000D01*
X146335636Y-96300000D02*
X146392818Y-96357182D01*
X139220000Y-96300000D02*
X146335636Y-96300000D01*
X146392818Y-96357182D02*
X154950000Y-104914365D01*
%TD*%
M02*
